<svg preserveAspectRatio="none" width="100%" height="100%" overflow="visible" style="display: block;" viewBox="0 0 236 48" fill="none" xmlns="http://www.w3.org/2000/svg">
<g id="Logo Horisontal 1" clip-path="url(#clip0_0_332)">
<path id="Vector" d="M0 32.7612V15.7375H3.82307V32.7612H0ZM11.1985 32.7612L5.31171 24.8078H2.94342L10.0821 15.7375H14.4465L8.05215 23.8602L8.01827 22.2018L15.7998 32.7273H11.1985V32.7612Z" fill="var(--fill-0, #1A1A1A)"/>
<path id="Vector_2" d="M16.7474 32.7612V15.7375H20.469V25.5524H19.8939C19.8939 24.2663 20.063 23.1833 20.3675 22.3033C20.7058 21.4234 21.1795 20.7465 21.8223 20.2727C22.4651 19.7988 23.2433 19.5958 24.2244 19.5958H24.3936C25.8145 19.5958 26.8972 20.1034 27.6415 21.0849C28.3858 22.1002 28.758 23.5556 28.758 25.4847V32.7612H25.0364V25.2478C25.0364 24.537 24.8334 23.9955 24.4274 23.5556C24.0214 23.1156 23.4801 22.9125 22.8034 22.9125C22.093 22.9125 21.5516 23.1494 21.1118 23.5894C20.672 24.0293 20.469 24.6385 20.469 25.3831V32.7612H16.7474Z" fill="var(--fill-0, #1A1A1A)"/>
<path id="Vector_3" d="M34.9827 33.0658C34.0692 33.0658 33.2573 32.8966 32.5806 32.592C31.904 32.2535 31.3627 31.7797 30.9567 31.1705C30.5845 30.5613 30.3815 29.8167 30.3815 28.9706C30.3815 28.023 30.6184 27.2784 31.092 26.6692C31.5656 26.06 32.2423 25.62 33.122 25.3493C34.0016 25.0785 34.9827 24.9093 36.133 24.9093H38.8735V26.9738H36.133C35.4902 26.9738 34.9827 27.143 34.6444 27.4476C34.3061 27.7522 34.1369 28.1922 34.1369 28.7337C34.1369 29.2414 34.3061 29.6475 34.6444 29.9859C34.9827 30.2905 35.4902 30.4598 36.133 30.4598C36.539 30.4598 36.945 30.3921 37.2495 30.2229C37.5879 30.0875 37.8585 29.8167 38.0615 29.4783C38.2645 29.106 38.3998 28.6321 38.4337 27.9891L39.3133 28.9368C39.2456 29.8167 39.0088 30.5613 38.6705 31.1705C38.3322 31.7797 37.8247 32.2535 37.2157 32.5581C36.6067 32.9304 35.8624 33.0658 34.9827 33.0658ZM39.0426 32.7612V28.9706H38.3998V24.8755C38.3998 24.2325 38.2307 23.7248 37.9262 23.4202C37.6217 23.0817 37.1142 22.9464 36.4375 22.9464C36.0992 22.9464 35.6594 22.9464 35.0842 22.9802C34.5091 22.9802 33.934 23.014 33.3588 23.0479C32.7836 23.0817 32.2423 23.1156 31.7348 23.1494V20.0019C32.107 19.9681 32.513 19.9342 32.9866 19.9004C33.4603 19.8665 33.9677 19.8327 34.4752 19.8327C34.9827 19.8327 35.4564 19.7989 35.9301 19.7989C37.2495 19.7989 38.3322 20.0019 39.2118 20.3742C40.0915 20.7465 40.7681 21.3218 41.2417 22.0664C41.7154 22.811 41.9522 23.7925 41.9522 24.977V32.795H39.0426V32.7612Z" fill="var(--fill-0, #1A1A1A)"/>
<path id="Vector_4" d="M43.069 22.7094V19.9681H52.204V22.7094H43.069ZM50.4105 32.9304C49.1252 32.9304 48.0762 32.7612 47.298 32.4566C46.5199 32.152 45.9109 31.6105 45.5726 30.8321C45.2004 30.0875 45.0313 29.0722 45.0313 27.7522V16.516H48.516V27.8876C48.516 28.4968 48.6852 28.9706 48.9896 29.2752C49.2941 29.5799 49.7676 29.749 50.3429 29.749H52.2378V32.8966H50.4105V32.9304Z" fill="var(--fill-0, #1A1A1A)"/>
<path id="Vector_5" d="M58.4286 33.1335C56.9401 33.1335 55.8233 32.6596 55.0115 31.712C54.2335 30.7643 53.8276 29.309 53.8276 27.3799V19.968H57.5487V27.583C57.5487 28.2599 57.7519 28.8014 58.1241 29.2075C58.4962 29.6136 59.0377 29.8167 59.6806 29.8167C60.3572 29.8167 60.8983 29.6136 61.3042 29.1737C61.7101 28.7675 61.9471 28.1922 61.9471 27.4815V19.968H65.6687V32.7273H62.7251V27.3461H62.9958C62.9958 28.6322 62.8269 29.7152 62.4886 30.5613C62.1503 31.4074 61.6763 32.0504 60.9996 32.4904C60.3572 32.8966 59.545 33.1335 58.5637 33.1335H58.4286Z" fill="var(--fill-0, #1A1A1A)"/>
<path id="Vector_6" d="M67.2252 18.4789V15.7375H72.5029V18.4789H67.2252ZM68.7475 32.7612V15.7375H72.5029V32.7612H68.7475Z" fill="var(--fill-0, #1A1A1A)"/>
<path id="Vector_7" d="M74.2284 22.7433V20.0019H79.6417V22.7433H74.2284ZM77.3747 18.7158C76.6643 18.7158 76.157 18.5466 75.8187 18.1743C75.4803 17.802 75.3109 17.3621 75.3109 16.7867C75.3109 16.2114 75.4803 15.7375 75.8187 15.3652C76.157 14.993 76.6643 14.8238 77.3747 14.8238C78.0852 14.8238 78.5929 14.993 78.9312 15.3652C79.2696 15.7375 79.4385 16.2114 79.4385 16.7867C79.4385 17.3621 79.2696 17.802 78.9312 18.1743C78.5929 18.5466 78.0852 18.7158 77.3747 18.7158ZM75.9538 32.7612V20.0019H79.6755V32.7612H75.9538Z" fill="var(--fill-0, #1A1A1A)"/>
<path id="Vector_8" d="M87.389 33.1335C85.5622 33.1335 84.1413 32.7612 83.1264 32.0166C82.1114 31.272 81.5698 30.2229 81.5023 28.8691H84.818C84.8856 29.2752 85.1226 29.6475 85.5622 29.9521C86.0019 30.2567 86.6448 30.4259 87.4909 30.4259C88.1333 30.4259 88.6748 30.3244 89.1145 30.0875C89.5547 29.8506 89.7574 29.546 89.7574 29.106C89.7574 28.7337 89.5884 28.4291 89.2839 28.1922C88.9456 27.9553 88.3702 27.8199 87.5247 27.7184L86.5097 27.6168C84.9869 27.4476 83.803 27.0415 83.0588 26.3308C82.2803 25.62 81.9082 24.7401 81.9082 23.6571C81.9082 22.7433 82.1451 21.9987 82.5848 21.3895C83.025 20.7803 83.6674 20.3403 84.4459 20.0019C85.2577 19.6973 86.1713 19.5281 87.1863 19.5281C88.8437 19.5281 90.1633 19.9004 91.1783 20.6111C92.1933 21.3218 92.701 22.371 92.7686 23.7586H89.4528C89.3852 23.3525 89.1821 22.9802 88.8099 22.7094C88.4378 22.4387 87.8968 22.2695 87.1525 22.2695C86.5772 22.2695 86.1038 22.371 85.7654 22.6079C85.4271 22.811 85.2577 23.1156 85.2577 23.4879C85.2577 23.8601 85.3928 24.1309 85.6974 24.3001C86.0019 24.5032 86.4759 24.6047 87.1525 24.7062L88.1675 24.8078C89.7236 24.977 90.9418 25.417 91.8211 26.1277C92.701 26.8384 93.1407 27.7522 93.1407 28.9368C93.1407 29.7829 92.9037 30.5275 92.4302 31.1705C91.9568 31.8135 91.3139 32.2873 90.434 32.6258C89.5547 32.9981 88.5397 33.1335 87.389 33.1335Z" fill="var(--fill-0, #1A1A1A)"/>
<path id="Vector_9" d="M93.3782 22.7094V19.9681H102.513V22.7094H93.3782ZM100.72 32.9304C99.4339 32.9304 98.3851 32.7612 97.6071 32.4566C96.829 32.152 96.22 31.6105 95.8816 30.8321C95.5095 30.0875 95.3406 29.0722 95.3406 27.7522V16.516H98.8253V27.8876C98.8253 28.4968 98.9942 28.9706 99.2987 29.2752C99.6033 29.5799 100.077 29.749 100.652 29.749H102.547V32.8966H100.72V32.9304Z" fill="var(--fill-0, #1A1A1A)"/>
<path id="Vector_10" d="M103.359 22.7433V20.0019H108.772V22.7433H103.359ZM106.505 18.7158C105.795 18.7158 105.287 18.5466 104.949 18.1743C104.61 17.802 104.441 17.3621 104.441 16.7867C104.441 16.2114 104.61 15.7375 104.949 15.3652C105.287 14.993 105.795 14.8238 106.505 14.8238C107.215 14.8238 107.723 14.993 108.061 15.3652C108.399 15.7375 108.569 16.2114 108.569 16.7867C108.569 17.3621 108.399 17.802 108.061 18.1743C107.723 18.5466 107.182 18.7158 106.505 18.7158ZM105.05 32.7612V20.0019H108.772V32.7612H105.05Z" fill="var(--fill-0, #1A1A1A)"/>
<path id="Vector_11" d="M113.779 32.7612L110.362 20.0019H113.982L117.162 32.7612H113.779ZM115.437 32.7612L115.403 29.6475H117.974L118.008 32.7612H115.437ZM116.317 32.7612L118.651 20.408H122.744L125.451 32.7612H122.576L119.801 20.5096H121.459L118.955 32.7612H116.317ZM123.523 32.7612L123.557 29.6475H126.128V32.7612H123.523ZM124.572 32.7612L127.414 20.0019H130.831L127.752 32.7612H124.572Z" fill="var(--fill-0, #1A1A1A)"/>
<path id="Vector_12" d="M136.007 33.0658C135.093 33.0658 134.282 32.8966 133.605 32.592C132.928 32.2535 132.387 31.7797 131.981 31.1705C131.609 30.5613 131.405 29.8167 131.405 28.9706C131.405 28.023 131.642 27.2784 132.116 26.6692C132.59 26.06 133.267 25.62 134.146 25.3493C135.026 25.0785 136.007 24.9093 137.157 24.9093H139.898V26.9738H137.157C136.514 26.9738 136.007 27.143 135.669 27.4476C135.33 27.7522 135.161 28.1922 135.161 28.7337C135.161 29.2414 135.33 29.6475 135.669 29.9859C136.007 30.2905 136.514 30.4598 137.157 30.4598C137.563 30.4598 137.969 30.3921 138.273 30.2229C138.612 30.0875 138.883 29.8167 139.086 29.4783C139.288 29.106 139.424 28.6321 139.458 27.9891L140.337 28.9368C140.27 29.8167 140.033 30.5613 139.695 31.1705C139.357 31.7797 138.849 32.2535 138.24 32.5581C137.631 32.9304 136.886 33.0658 136.007 33.0658ZM140.067 32.7612V28.9706H139.424V24.8755C139.424 24.2325 139.255 23.7248 138.95 23.4202C138.646 23.0817 138.138 22.9464 137.462 22.9464C137.123 22.9464 136.684 22.9464 136.108 22.9802C135.533 22.9802 134.958 23.014 134.383 23.0479C133.808 23.0817 133.267 23.1156 132.759 23.1494V20.0019C133.131 19.9681 133.537 19.9342 134.011 19.9004C134.484 19.8665 134.992 19.8327 135.499 19.8327C136.007 19.8327 136.48 19.7989 136.954 19.7989C138.273 19.7989 139.357 20.0019 140.236 20.3742C141.116 20.7465 141.792 21.3218 142.266 22.0664C142.739 22.811 142.976 23.7925 142.976 24.977V32.795H140.067V32.7612Z" fill="var(--fill-0, #1A1A1A)"/>
<path id="Vector_13" d="M148.897 32.7612L155.021 15.7375H158.877L165.204 32.7612H162.836L157.118 17.2267L158.235 17.802H155.494L156.679 17.2267L151.164 32.7612H148.897ZM152.551 27.6845L153.329 25.62H160.67L161.449 27.6845H152.551Z" fill="var(--fill-0, #1A1A1A)"/>
<path id="Vector_14" d="M166.118 22.0664V20.3065H170.279V22.0664H166.118ZM168.655 18.3097C168.148 18.3097 167.775 18.1743 167.538 17.9036C167.302 17.6328 167.166 17.2944 167.166 16.8883C167.166 16.4821 167.302 16.1437 167.538 15.8729C167.775 15.6022 168.148 15.4668 168.655 15.4668C169.163 15.4668 169.535 15.6022 169.772 15.8729C170.008 16.1437 170.144 16.4821 170.144 16.8883C170.144 17.2944 170.008 17.6328 169.772 17.9036C169.501 18.1743 169.129 18.3097 168.655 18.3097ZM168.012 32.7612V20.3065H170.245V32.7612H168.012Z" fill="var(--fill-0, #1A1A1A)"/>
<path id="Vector_15" d="M174.001 32.7612V20.3065H175.76V25.4508H175.658C175.658 23.6232 176.064 22.3033 176.843 21.4572C177.655 20.6111 178.839 20.1711 180.429 20.1711H180.835V22.1679H180.057C178.805 22.1679 177.858 22.5064 177.181 23.1494C176.504 23.8263 176.166 24.7739 176.166 25.9923V32.7273H174.001V32.7612Z" fill="var(--fill-0, #1A1A1A)"/>
<path id="Vector_16" d="M189.14 33.7765C188.497 34.115 187.854 34.3857 187.177 34.6226C188.7 35.1641 190.358 35.5026 192.049 35.6041H193.91C195.703 35.5026 197.395 35.1303 198.985 34.5549C199.492 34.3857 199.966 34.1488 200.44 33.9457C200.812 33.7765 201.184 33.5735 201.556 33.3704C201.59 33.3704 201.59 33.3365 201.624 33.3365C202.436 32.8627 203.214 32.3212 203.925 31.712L206.259 29.3768L209.71 25.9247L211.638 23.9955L209.71 22.0664L206.293 18.6481L203.958 16.3129C203.248 15.7037 202.47 15.1622 201.658 14.6884C201.624 14.6884 201.624 14.6545 201.59 14.6545C201.218 14.4515 200.846 14.2484 200.474 14.0792C200 13.8423 199.526 13.6392 199.019 13.47C197.429 12.8608 195.703 12.5224 193.944 12.4208H192.083C190.392 12.5224 188.734 12.8608 187.211 13.4023C187.888 13.6392 188.531 13.91 189.174 14.2484C191.136 15.2299 192.861 16.5498 194.316 18.1743C194.35 18.2082 194.35 18.2082 194.384 18.242L200.169 24.0294L194.384 29.8167C194.35 29.8506 194.35 29.8506 194.316 29.8844C192.828 31.4413 191.102 32.795 189.14 33.7765Z" fill="var(--fill-0, #D9D9D9)"/>
<path id="Vector_17" d="M189.14 33.7765C188.497 34.115 187.854 34.3857 187.177 34.6226C188.7 35.1641 190.358 35.5026 192.049 35.6041H193.91C195.703 35.5026 197.395 35.1303 198.985 34.5549C199.492 34.3857 199.966 34.1488 200.44 33.9457C200.812 33.7765 201.184 33.5735 201.556 33.3704C201.59 33.3704 201.59 33.3365 201.624 33.3365C202.436 32.8627 203.214 32.3212 203.925 31.712L206.259 29.3768L209.71 25.9247L211.638 23.9955L209.71 22.0664L206.293 18.6481L203.958 16.3129C203.248 15.7037 202.47 15.1622 201.658 14.6884C201.624 14.6884 201.624 14.6545 201.59 14.6545C201.218 14.4515 200.846 14.2484 200.474 14.0792C200 13.8423 199.526 13.6392 199.019 13.47C197.429 12.8608 195.703 12.5224 193.944 12.4208H192.083C190.392 12.5224 188.734 12.8608 187.211 13.4023C187.888 13.6392 188.531 13.91 189.174 14.2484C191.136 15.2299 192.861 16.5498 194.316 18.1743C194.35 18.2082 194.35 18.2082 194.384 18.242L200.169 24.0294L194.384 29.8167C194.35 29.8506 194.35 29.8506 194.316 29.8844C192.828 31.4413 191.102 32.795 189.14 33.7765Z" fill="url(#paint0_linear_0_332)"/>
<path id="Vector_18" d="M235.964 24.9431C235.896 24.9431 235.829 24.9431 235.761 24.9431H224.461C219.928 24.9431 215.834 26.6692 212.755 29.546L211.266 31.0351C211.063 31.2382 210.894 31.4413 210.691 31.6104L200.169 42.136C200.135 42.1699 200.135 42.1699 200.102 42.2037C199.154 43.2529 198.072 44.2005 196.888 45.0128C196.82 45.0466 196.718 45.0805 196.651 45.1482C195.027 45.8927 192.929 45.4528 191.609 44.4374C190.696 43.7606 190.459 42.7791 190.764 41.696C191.068 40.6469 191.745 40.0038 192.895 39.9023C193.2 39.8685 193.538 39.8008 193.843 39.7669C193.775 38.244 191.373 37.6009 189.985 37.8717C187.583 38.3793 186.67 40.3084 187.414 43.3882C185.858 43.1175 184.403 43.3544 183.05 44.2005C181.46 45.2159 180.614 46.6711 180.885 47.9572C181.02 47.9234 181.155 47.8895 181.291 47.8219C183.388 46.9419 185.588 46.5696 187.888 46.8742C189.478 47.0773 191.034 47.2465 192.625 47.4157C193.267 47.4834 193.944 47.5511 194.587 47.6188C194.959 47.6526 195.365 47.6865 195.771 47.6865C196.752 47.8557 197.733 47.9572 198.782 47.9572C200.88 47.9572 202.91 47.5849 204.77 46.8742C205.684 46.5358 206.53 46.1296 207.375 45.6558C207.443 45.622 207.511 45.5881 207.579 45.5543C208.39 45.0805 209.168 44.5051 209.879 43.8959L220.401 33.3704C220.604 33.1673 220.807 32.9304 221.044 32.7273L223.514 30.2567C223.717 30.0536 223.886 29.8506 224.089 29.6813C225.814 28.023 227.912 26.7369 230.213 25.8908C232.006 25.2816 233.934 24.9431 235.964 24.9431Z" fill="var(--fill-0, #0088FF)"/>
<path id="Vector_19" d="M235.964 23.014C235.896 23.014 235.829 23.014 235.761 23.014H224.461C219.928 23.014 215.834 21.288 212.755 18.4112L211.266 16.9221C211.063 16.719 210.894 16.516 210.691 16.3467L200.169 5.82118C200.135 5.78733 200.135 5.78738 200.102 5.75354C199.154 4.70434 198.072 3.75669 196.888 2.94443C196.82 2.91058 196.718 2.87675 196.651 2.80906C195.027 2.06449 192.929 2.50446 191.609 3.51979C190.696 4.19667 190.459 5.17817 190.764 6.26116C191.068 7.31035 191.745 7.9534 192.895 8.05494C193.2 8.08878 193.538 8.15643 193.843 8.19027C193.775 9.71329 191.373 10.3563 189.985 10.0856C187.583 9.57791 186.67 7.6488 187.414 4.56897C185.858 4.83972 184.403 4.6028 183.05 3.7567C181.46 2.74137 180.614 1.28608 180.885 0C181.02 0.0338442 181.155 0.0676761 181.291 0.135364C183.388 1.01531 185.588 1.3876 187.888 1.083C189.478 0.879933 191.034 0.710718 192.625 0.541499C193.267 0.47381 193.944 0.40613 194.587 0.338442C194.959 0.304598 195.365 0.270749 195.771 0.270749C196.752 0.101528 197.733 0 198.782 0C200.88 0 202.91 0.37227 204.77 1.083C205.684 1.42144 206.53 1.82758 207.375 2.3014C207.443 2.33524 207.511 2.36908 207.579 2.40293C208.39 2.87675 209.168 3.45211 209.879 4.0613L220.401 14.5869C220.604 14.7899 220.807 15.0268 221.044 15.2299L223.514 17.7005C223.717 17.9036 223.886 18.1066 224.089 18.2759C225.814 19.9343 227.912 21.2203 230.213 22.0664C232.006 22.6756 233.934 23.014 235.964 23.014Z" fill="var(--fill-0, #0088FF)"/>
</g>
<defs>
<linearGradient id="paint0_linear_0_332" x1="187.177" y1="24.0124" x2="211.638" y2="24.0124" gradientUnits="userSpaceOnUse">
<stop offset="0.2" stop-color="#FFE259"/>
<stop offset="0.8" stop-color="#FFA751"/>
</linearGradient>
<clipPath id="clip0_0_332">
<rect width="236" height="48" fill="white"/>
</clipPath>
</defs>
</svg>
