<svg preserveAspectRatio="none" width="100%" height="100%" overflow="visible" style="display: block;" viewBox="0 0 157 32" fill="none" xmlns="http://www.w3.org/2000/svg">
<g id="Logo Horisontal_White Comb 1" clip-path="url(#clip0_0_263)">
<path id="Vector" d="M0 21.8408V10.4917H2.54331V21.8408H0ZM7.44988 21.8408L3.53364 16.5385H1.95813L6.70716 10.4917H9.61058L5.35673 15.9068L5.33422 14.8012L10.5109 21.8182H7.44988V21.8408Z" fill="var(--fill-0, white)"/>
<path id="Vector_2" d="M11.1413 21.8408V10.4917H13.6171V17.0349H13.2345C13.2345 16.1775 13.347 15.4555 13.5496 14.8689C13.7746 14.2822 14.0897 13.831 14.5174 13.5151C14.945 13.1992 15.4627 13.0638 16.1154 13.0638H16.2279C17.1732 13.0638 17.8935 13.4023 18.3886 14.0566C18.8838 14.7335 19.1314 15.7037 19.1314 16.9898V21.8408H16.6556V16.8318C16.6556 16.358 16.5205 15.997 16.2504 15.7037C15.9804 15.4104 15.6202 15.275 15.1701 15.275C14.6974 15.275 14.3373 15.4329 14.0447 15.7262C13.7521 16.0196 13.6171 16.4257 13.6171 16.9221V21.8408H11.1413Z" fill="var(--fill-0, white)"/>
<path id="Vector_3" d="M23.2724 22.0439C22.6647 22.0439 22.1246 21.931 21.6744 21.728C21.2243 21.5023 20.8642 21.1865 20.5941 20.7803C20.3465 20.3742 20.2114 19.8778 20.2114 19.3138C20.2114 18.682 20.369 18.1856 20.6841 17.7795C20.9992 17.3734 21.4493 17.08 22.0345 16.8995C22.6197 16.719 23.2724 16.6062 24.0377 16.6062H25.8607V17.9825H24.0377C23.61 17.9825 23.2724 18.0953 23.0473 18.2984C22.8223 18.5015 22.7097 18.7948 22.7097 19.1558C22.7097 19.4942 22.8223 19.765 23.0473 19.9906C23.2724 20.1937 23.61 20.3065 24.0377 20.3065C24.3077 20.3065 24.5778 20.2614 24.7804 20.1486C25.0055 20.0583 25.1855 19.8778 25.3206 19.6522C25.4556 19.404 25.5457 19.0881 25.5682 18.6594L26.1533 19.2912C26.1083 19.8778 25.9508 20.3742 25.7257 20.7803C25.5006 21.1865 25.163 21.5023 24.7579 21.7054C24.3528 21.9536 23.8576 22.0439 23.2724 22.0439ZM25.9733 21.8408V19.3138H25.5457V16.5836C25.5457 16.155 25.4331 15.8165 25.2306 15.6135C25.028 15.3878 24.6904 15.2976 24.2402 15.2976C24.0151 15.2976 23.7226 15.2976 23.3399 15.3201C22.9573 15.3201 22.5747 15.3427 22.1921 15.3653C21.8094 15.3878 21.4493 15.4104 21.1117 15.4329V13.3346C21.3593 13.312 21.6294 13.2895 21.9445 13.2669C22.2596 13.2443 22.5972 13.2218 22.9348 13.2218C23.2724 13.2218 23.5875 13.1992 23.9026 13.1992C24.7804 13.1992 25.5006 13.3346 26.0858 13.5828C26.671 13.831 27.1212 14.2146 27.4362 14.7109C27.7513 15.2073 27.9089 15.8616 27.9089 16.6513V21.8633H25.9733V21.8408Z" fill="var(--fill-0, white)"/>
<path id="Vector_4" d="M28.6518 15.1396V13.3121H34.7289V15.1396H28.6518ZM33.5358 21.9536C32.6808 21.9536 31.9829 21.8408 31.4652 21.6377C30.9475 21.4346 30.5424 21.0737 30.3174 20.5547C30.0698 20.0583 29.9572 19.3815 29.9572 18.5015V11.0106H32.2755V18.5917C32.2755 18.9979 32.388 19.3138 32.5905 19.5168C32.7931 19.7199 33.1081 19.8327 33.4908 19.8327H34.7514V21.931H33.5358V21.9536Z" fill="var(--fill-0, white)"/>
<path id="Vector_5" d="M38.8699 22.089C37.8797 22.089 37.137 21.7731 36.5966 21.1413C36.0791 20.5096 35.809 19.5394 35.809 18.2533V13.312H38.2849V18.3887C38.2849 18.8399 38.4197 19.2009 38.6673 19.4717C38.9148 19.7424 39.2751 19.8778 39.7028 19.8778C40.1529 19.8778 40.5128 19.7424 40.7832 19.4491C41.0532 19.1784 41.2105 18.7948 41.2105 18.321V13.312H43.6864V21.8182H41.7284V18.2307H41.9083C41.9083 19.0881 41.7959 19.8101 41.5708 20.3742C41.3457 20.9383 41.0307 21.367 40.5806 21.6603C40.1529 21.931 39.6125 22.089 38.9601 22.089H38.8699Z" fill="var(--fill-0, white)"/>
<path id="Vector_6" d="M44.7219 12.3193V10.4917H48.2329V12.3193H44.7219ZM45.7346 21.8408V10.4917H48.2329V21.8408H45.7346Z" fill="var(--fill-0, white)"/>
<path id="Vector_7" d="M49.3807 15.1622V13.3346H52.982V15.1622H49.3807ZM51.4739 12.4772C51.0012 12.4772 50.6638 12.3644 50.4387 12.1162C50.2136 11.868 50.1009 11.5747 50.1009 11.1912C50.1009 10.8076 50.2136 10.4917 50.4387 10.2435C50.6638 9.99533 51.0012 9.88251 51.4739 9.88251C51.9465 9.88251 52.2843 9.99533 52.5093 10.2435C52.7344 10.4917 52.8468 10.8076 52.8468 11.1912C52.8468 11.5747 52.7344 11.868 52.5093 12.1162C52.2843 12.3644 51.9465 12.4772 51.4739 12.4772ZM50.5286 21.8408V13.3346H53.0044V21.8408H50.5286Z" fill="var(--fill-0, white)"/>
<path id="Vector_8" d="M58.1359 22.089C56.9206 22.089 55.9754 21.8408 55.3002 21.3444C54.6249 20.848 54.2647 20.1486 54.2197 19.2461H56.4255C56.4705 19.5168 56.6281 19.765 56.9206 19.9681C57.2131 20.1711 57.6408 20.284 58.2037 20.284C58.631 20.284 58.9913 20.2163 59.2838 20.0583C59.5766 19.9004 59.7115 19.6973 59.7115 19.404C59.7115 19.1558 59.5991 18.9528 59.3965 18.7948C59.1714 18.6369 58.7887 18.5466 58.2262 18.4789L57.5509 18.4112C56.5379 18.2984 55.7503 18.0277 55.2552 17.5539C54.7373 17.08 54.4897 16.4934 54.4897 15.7714C54.4897 15.1622 54.6474 14.6658 54.9399 14.2597C55.2327 13.8536 55.6601 13.5602 56.178 13.3346C56.718 13.1315 57.3258 13.0187 58.0011 13.0187C59.1037 13.0187 59.9815 13.2669 60.6567 13.7407C61.3319 14.2146 61.6697 14.914 61.7147 15.8391H59.5089C59.4639 15.5683 59.3287 15.3201 59.0812 15.1396C58.8336 14.9591 58.4737 14.8463 57.9786 14.8463C57.5959 14.8463 57.2809 14.914 57.0558 15.0719C56.8307 15.2073 56.718 15.4104 56.718 15.6586C56.718 15.9068 56.8079 16.0873 57.0105 16.2001C57.2131 16.3354 57.5284 16.4031 57.9786 16.4708L58.6538 16.5385C59.689 16.6513 60.4994 16.9447 61.0844 17.4184C61.6697 17.8923 61.9622 18.5015 61.9622 19.2912C61.9622 19.8552 61.8046 20.3516 61.4896 20.7803C61.1746 21.209 60.7469 21.5249 60.1616 21.7505C59.5766 21.9987 58.9014 22.089 58.1359 22.089Z" fill="var(--fill-0, white)"/>
<path id="Vector_9" d="M62.1202 15.1396V13.3121H68.197V15.1396H62.1202ZM67.0041 21.9536C66.1488 21.9536 65.4511 21.8408 64.9335 21.6377C64.4159 21.4346 64.0107 21.0737 63.7856 20.5547C63.5381 20.0583 63.4257 19.3815 63.4257 18.5015V11.0106H65.7439V18.5917C65.7439 18.9979 65.8563 19.3138 66.0589 19.5168C66.2615 19.7199 66.5765 19.8327 66.9592 19.8327H68.2197V21.931H67.0041V21.9536Z" fill="var(--fill-0, white)"/>
<path id="Vector_10" d="M68.7598 15.1622V13.3346H72.3607V15.1622H68.7598ZM70.8529 12.4772C70.3803 12.4772 70.0425 12.3644 69.8174 12.1162C69.5924 11.868 69.48 11.5747 69.48 11.1912C69.48 10.8076 69.5924 10.4917 69.8174 10.2435C70.0425 9.99533 70.3803 9.88251 70.8529 9.88251C71.3256 9.88251 71.663 9.99533 71.8881 10.2435C72.1132 10.4917 72.2259 10.8076 72.2259 11.1912C72.2259 11.5747 72.1132 11.868 71.8881 12.1162C71.663 12.3644 71.3031 12.4772 70.8529 12.4772ZM69.8852 21.8408V13.3346H72.3607V21.8408H69.8852Z" fill="var(--fill-0, white)"/>
<path id="Vector_11" d="M75.6919 21.8408L73.4187 13.3346H75.8271L77.9427 21.8408H75.6919ZM76.7948 21.8408L76.7723 19.765H78.4827L78.5055 21.8408H76.7948ZM77.3802 21.8408L78.9329 13.6054H81.6563L83.4569 21.8408H81.5439L79.6983 13.673H80.8013L79.1355 21.8408H77.3802ZM82.1742 21.8408L82.1967 19.765H83.9071V21.8408H82.1742ZM82.8719 21.8408L84.7624 13.3346H87.0357L84.9875 21.8408H82.8719Z" fill="var(--fill-0, white)"/>
<path id="Vector_12" d="M90.4792 22.0439C89.8714 22.0439 89.3314 21.931 88.8812 21.728C88.4311 21.5023 88.0708 21.1865 87.8008 20.7803C87.5532 20.3742 87.4181 19.8778 87.4181 19.3138C87.4181 18.682 87.5757 18.1856 87.8907 17.7795C88.206 17.3734 88.6561 17.08 89.2411 16.8995C89.8265 16.719 90.4792 16.6062 91.2444 16.6062H93.0675V17.9825H91.2444C90.8167 17.9825 90.4792 18.0953 90.2542 18.2984C90.0291 18.5015 89.9164 18.7948 89.9164 19.1558C89.9164 19.4942 90.0291 19.765 90.2542 19.9906C90.4792 20.1937 90.8167 20.3065 91.2444 20.3065C91.5144 20.3065 91.7847 20.2614 91.987 20.1486C92.2121 20.0583 92.3922 19.8778 92.5274 19.6522C92.6622 19.404 92.7525 19.0881 92.775 18.6594L93.36 19.2912C93.315 19.8778 93.1577 20.3742 92.9326 20.7803C92.7075 21.1865 92.3698 21.5023 91.9645 21.7054C91.5597 21.9536 91.0642 22.0439 90.4792 22.0439ZM93.1802 21.8408V19.3138H92.7525V16.5836C92.7525 16.155 92.6398 15.8165 92.4372 15.6135C92.2346 15.3878 91.8971 15.2976 91.447 15.2976C91.2219 15.2976 90.9294 15.2976 90.5467 15.3201C90.1639 15.3201 89.7815 15.3427 89.3988 15.3653C89.0161 15.3878 88.6561 15.4104 88.3184 15.4329V13.3346C88.5659 13.312 88.8363 13.2895 89.1512 13.2669C89.4662 13.2443 89.804 13.2218 90.1415 13.2218C90.4792 13.2218 90.7942 13.1992 91.1095 13.1992C91.987 13.1992 92.7075 13.3346 93.2925 13.5828C93.8779 13.831 94.328 14.2146 94.643 14.7109C94.958 15.2073 95.1156 15.8616 95.1156 16.6513V21.8633H93.1802V21.8408Z" fill="var(--fill-0, white)"/>
<path id="Vector_13" d="M99.0543 21.8408L103.128 10.4917H105.694L109.903 21.8408H108.327L104.524 11.4844L105.266 11.868H103.443L104.231 11.4844L100.562 21.8408H99.0543ZM101.485 18.4564L102.003 17.08H106.887L107.405 18.4564H101.485Z" fill="var(--fill-0, white)"/>
<path id="Vector_14" d="M110.51 14.711V13.5377H113.279V14.711H110.51ZM112.199 12.2065C111.861 12.2065 111.613 12.1162 111.456 11.9357C111.298 11.7552 111.208 11.5296 111.208 11.2588C111.208 10.9881 111.298 10.7624 111.456 10.5819C111.613 10.4015 111.861 10.3112 112.199 10.3112C112.536 10.3112 112.784 10.4015 112.941 10.5819C113.099 10.7624 113.189 10.9881 113.189 11.2588C113.189 11.5296 113.099 11.7552 112.941 11.9357C112.761 12.1162 112.514 12.2065 112.199 12.2065ZM111.771 21.8408V13.5377H113.256V21.8408H111.771Z" fill="var(--fill-0, white)"/>
<path id="Vector_15" d="M115.755 21.8408V13.5377H116.925V16.9672H116.858C116.858 15.7488 117.128 14.8689 117.645 14.3048C118.185 13.7407 118.973 13.4474 120.031 13.4474H120.301V14.7786H119.783C118.951 14.7786 118.321 15.0042 117.871 15.4329C117.42 15.8842 117.195 16.516 117.195 17.3282V21.8182H115.755V21.8408Z" fill="var(--fill-0, white)"/>
<path id="Vector_16" d="M125.826 22.5177C125.398 22.7433 124.971 22.9238 124.521 23.0818C125.534 23.4427 126.636 23.6684 127.762 23.7361H129C130.192 23.6684 131.318 23.4202 132.376 23.0366C132.713 22.9238 133.028 22.7659 133.343 22.6305C133.591 22.5177 133.839 22.3823 134.086 22.2469C134.109 22.2469 134.109 22.2244 134.131 22.2244C134.671 21.9085 135.189 21.5475 135.662 21.1413L137.215 19.5845L139.51 17.2831L140.793 15.997L139.51 14.711L137.237 12.4321L135.684 10.8753C135.212 10.4691 134.694 10.1081 134.154 9.79226C134.131 9.79226 134.131 9.7697 134.109 9.7697C133.861 9.63432 133.614 9.49894 133.366 9.38612C133.051 9.22818 132.736 9.0928 132.398 8.97998C131.34 8.57388 130.192 8.34824 129.022 8.28055H127.784C126.659 8.34824 125.556 8.57388 124.543 8.93486C124.993 9.0928 125.421 9.27331 125.849 9.49894C127.154 10.1533 128.302 11.0332 129.27 12.1162C129.292 12.1388 129.292 12.1388 129.315 12.1613L133.163 16.0196L129.315 19.8778C129.292 19.9004 129.292 19.9004 129.27 19.9229C128.279 20.9608 127.132 21.8633 125.826 22.5177Z" fill="var(--fill-0, white)"/>
<path id="Vector_17" d="M125.826 22.5177C125.398 22.7433 124.971 22.9238 124.521 23.0818C125.534 23.4427 126.636 23.6684 127.762 23.7361H129C130.192 23.6684 131.318 23.4202 132.376 23.0366C132.713 22.9238 133.028 22.7659 133.343 22.6305C133.591 22.5177 133.839 22.3823 134.086 22.2469C134.109 22.2469 134.109 22.2244 134.131 22.2244C134.671 21.9085 135.189 21.5475 135.662 21.1413L137.215 19.5845L139.51 17.2831L140.793 15.997L139.51 14.711L137.237 12.4321L135.684 10.8753C135.212 10.4691 134.694 10.1081 134.154 9.79226C134.131 9.79226 134.131 9.7697 134.109 9.7697C133.861 9.63432 133.614 9.49894 133.366 9.38612C133.051 9.22818 132.736 9.0928 132.398 8.97998C131.34 8.57388 130.192 8.34824 129.022 8.28055H127.784C126.659 8.34824 125.556 8.57388 124.543 8.93486C124.993 9.0928 125.421 9.27331 125.849 9.49894C127.154 10.1533 128.302 11.0332 129.27 12.1162C129.292 12.1388 129.292 12.1388 129.315 12.1613L133.163 16.0196L129.315 19.8778C129.292 19.9004 129.292 19.9004 129.27 19.9229C128.279 20.9608 127.132 21.8633 125.826 22.5177Z" fill="url(#paint0_linear_0_263)"/>
<path id="Vector_18" d="M156.976 16.6288C156.931 16.6288 156.886 16.6288 156.841 16.6288H149.324C146.308 16.6288 143.584 17.7795 141.536 19.6973L140.546 20.6901C140.411 20.8255 140.298 20.9608 140.163 21.0737L133.163 28.0907C133.141 28.1132 133.141 28.1132 133.118 28.1358C132.488 28.8353 131.768 29.467 130.98 30.0085C130.935 30.0311 130.868 30.0536 130.823 30.0988C129.742 30.5952 128.347 30.3018 127.469 29.6249C126.861 29.1737 126.704 28.5194 126.906 27.7974C127.109 27.0979 127.559 26.6692 128.324 26.6015C128.527 26.579 128.752 26.5338 128.955 26.5113C128.909 25.496 127.311 25.0673 126.389 25.2478C124.791 25.5862 124.183 26.8723 124.678 28.9255C123.643 28.745 122.675 28.903 121.775 29.467C120.717 30.1439 120.154 31.1141 120.334 31.9715C120.424 31.9489 120.514 31.9264 120.604 31.8812C122 31.2946 123.463 31.0464 124.993 31.2495C126.051 31.3848 127.086 31.4977 128.144 31.6105C128.572 31.6556 129.022 31.7007 129.45 31.7459C129.697 31.7684 129.967 31.791 130.237 31.791C130.89 31.9038 131.543 31.9715 132.241 31.9715C133.636 31.9715 134.986 31.7233 136.224 31.2495C136.832 31.0239 137.395 30.7531 137.957 30.4372C138.002 30.4147 138.047 30.3921 138.093 30.3695C138.633 30.0536 139.15 29.6701 139.623 29.2639L146.623 22.2469C146.758 22.1115 146.893 21.9536 147.05 21.8182L148.693 20.1711C148.829 20.0358 148.941 19.9004 149.076 19.7876C150.224 18.682 151.619 17.8246 153.15 17.2605C154.343 16.8544 155.625 16.6288 156.976 16.6288Z" fill="var(--fill-0, #0088FF)"/>
<path id="Vector_19" d="M156.976 15.3427C156.931 15.3427 156.886 15.3427 156.841 15.3427H149.324C146.308 15.3427 143.584 14.192 141.536 12.2742L140.546 11.2814C140.411 11.146 140.298 11.0106 140.163 10.8978L133.163 3.88078C133.141 3.85822 133.141 3.85825 133.118 3.83569C132.488 3.13623 131.768 2.50446 130.98 1.96295C130.935 1.94039 130.868 1.91784 130.823 1.87271C129.742 1.37633 128.347 1.66964 127.469 2.34652C126.861 2.79778 126.704 3.45211 126.906 4.17411C127.109 4.87357 127.559 5.30227 128.324 5.36996C128.527 5.39252 128.752 5.43762 128.955 5.46018C128.909 6.47553 127.311 6.90423 126.389 6.72372C124.791 6.38527 124.183 5.0992 124.678 3.04598C123.643 3.22648 122.675 3.06854 121.775 2.50446C120.717 1.82758 120.154 0.857388 120.334 0C120.424 0.0225628 120.514 0.0451174 120.604 0.0902429C122 0.676875 123.463 0.925065 124.993 0.721998C126.051 0.586622 127.086 0.473812 128.144 0.360999C128.572 0.315874 129.022 0.270754 129.45 0.225628C129.697 0.203065 129.967 0.1805 130.237 0.1805C130.89 0.0676856 131.543 0 132.241 0C133.636 0 134.986 0.24818 136.224 0.721998C136.832 0.947628 137.395 1.21839 137.957 1.53427C138.002 1.55683 138.047 1.57939 138.093 1.60195C138.633 1.91783 139.15 2.3014 139.623 2.70754L146.623 9.72457C146.758 9.85995 146.893 10.0179 147.05 10.1533L148.693 11.8003C148.829 11.9357 148.941 12.0711 149.076 12.1839C150.224 13.2895 151.619 14.1469 153.15 14.7109C154.343 15.1171 155.625 15.3427 156.976 15.3427Z" fill="var(--fill-0, #0088FF)"/>
</g>
<defs>
<linearGradient id="paint0_linear_0_263" x1="124.521" y1="16.0083" x2="140.793" y2="16.0083" gradientUnits="userSpaceOnUse">
<stop offset="0.2" stop-color="#FFE259"/>
<stop offset="0.8" stop-color="#FFA751"/>
</linearGradient>
<clipPath id="clip0_0_263">
<rect width="157" height="32" fill="white"/>
</clipPath>
</defs>
</svg>
