<svg preserveAspectRatio="none" width="100%" height="100%" overflow="visible" style="display: block;" viewBox="0 0 470 409" fill="none" xmlns="http://www.w3.org/2000/svg">
<g id="Logo Mark 1" style="mix-blend-mode:luminosity" opacity="0.1" clip-path="url(#clip0_0_4)">
<path id="Vector" d="M70.8001 287.804C65.32 290.688 59.8399 292.995 54.0713 295.014C67.0506 299.628 81.1831 302.511 95.6041 303.377H111.468C126.754 302.511 141.175 299.339 154.731 294.437C159.057 292.995 163.095 290.976 167.133 289.246C170.306 287.804 173.478 286.074 176.651 284.343C176.939 284.343 176.939 284.055 177.228 284.055C184.15 280.018 190.784 275.403 196.84 270.213L216.741 250.315L246.161 220.9L262.601 204.462L246.161 188.024L217.03 158.898L197.129 138.999C191.072 133.809 184.438 129.194 177.516 125.157C177.228 125.157 177.228 124.869 176.939 124.869C173.766 123.139 170.594 121.408 167.421 119.966C163.383 117.948 159.345 116.217 155.019 114.775C141.463 109.585 126.754 106.701 111.756 105.836H95.8925C81.4715 106.701 67.339 109.585 54.3597 114.199C60.1283 116.217 65.6084 118.524 71.0885 121.408C87.817 129.772 102.526 141.018 114.928 154.86C115.217 155.149 115.217 155.149 115.505 155.437L164.826 204.75L115.505 254.063C115.217 254.352 115.217 254.352 114.928 254.64C102.238 267.906 87.5285 279.441 70.8001 287.804Z" fill="var(--fill-0, #D9D9D9)"/>
<path id="Vector_2" d="M70.8001 287.804C65.32 290.688 59.8399 292.995 54.0713 295.014C67.0506 299.628 81.1831 302.511 95.6041 303.377H111.468C126.754 302.511 141.175 299.339 154.731 294.437C159.057 292.995 163.095 290.976 167.133 289.246C170.306 287.804 173.478 286.074 176.651 284.343C176.939 284.343 176.939 284.055 177.228 284.055C184.15 280.018 190.784 275.403 196.84 270.213L216.741 250.315L246.161 220.9L262.601 204.462L246.161 188.024L217.03 158.898L197.129 138.999C191.072 133.809 184.438 129.194 177.516 125.157C177.228 125.157 177.228 124.869 176.939 124.869C173.766 123.139 170.594 121.408 167.421 119.966C163.383 117.948 159.345 116.217 155.019 114.775C141.463 109.585 126.754 106.701 111.756 105.836H95.8925C81.4715 106.701 67.339 109.585 54.3597 114.199C60.1283 116.217 65.6084 118.524 71.0885 121.408C87.817 129.772 102.526 141.018 114.928 154.86C115.217 155.149 115.217 155.149 115.505 155.437L164.826 204.75L115.505 254.063C115.217 254.352 115.217 254.352 114.928 254.64C102.238 267.906 87.5285 279.441 70.8001 287.804Z" fill="url(#paint0_linear_0_4)"/>
<path id="Vector_3" d="M469.975 212.536C469.399 212.536 468.823 212.536 468.247 212.536H371.913C333.264 212.536 298.365 227.244 272.119 251.757L259.428 264.445C257.698 266.176 256.256 267.906 254.525 269.348L164.826 359.034C164.538 359.322 164.538 359.322 164.249 359.611C156.173 368.551 146.944 376.625 136.849 383.546C136.272 383.835 135.407 384.123 134.83 384.7C120.986 391.044 103.104 387.295 91.8549 378.644C84.0678 372.877 82.0488 364.513 84.6447 355.285C87.2405 346.345 93.0087 340.866 102.815 340.001C105.411 339.712 108.295 339.136 110.891 338.847C110.314 325.87 89.8364 320.391 78.0108 322.698C57.5328 327.024 49.7457 343.462 56.0907 369.704C42.8234 367.397 30.4212 369.416 18.8844 376.625C5.32853 385.277 -1.88201 397.677 0.425367 408.636C1.57905 408.347 2.73269 408.059 3.88638 407.482C21.7686 399.984 40.516 396.812 60.1287 399.407C73.6844 401.138 86.9521 402.58 100.508 404.021C105.988 404.598 111.756 405.175 117.236 405.752C120.409 406.04 123.87 406.329 127.331 406.329C135.695 407.771 144.06 408.636 153 408.636C170.883 408.636 188.188 405.463 204.051 399.407C211.839 396.523 219.049 393.063 226.26 389.026C226.837 388.737 227.414 388.449 227.99 388.161C234.912 384.123 241.546 379.221 247.603 374.03L337.302 284.343C339.033 282.613 340.763 280.594 342.782 278.864L363.837 257.812C365.568 256.082 367.01 254.352 368.74 252.91C383.45 238.779 401.332 227.821 420.946 220.611C436.232 215.42 452.669 212.536 469.975 212.536Z" fill="var(--fill-0, #0088FF)"/>
<path id="Vector_4" d="M469.975 196.099C469.399 196.099 468.823 196.099 468.247 196.099H371.913C333.264 196.099 298.365 181.392 272.119 156.879L259.428 144.19C257.698 142.46 256.256 140.73 254.525 139.288L164.826 49.6013C164.538 49.3129 164.538 49.3133 164.249 49.0249C156.173 40.0849 146.944 32.0101 136.849 25.089C136.272 24.8006 135.407 24.5123 134.83 23.9356C120.986 17.5912 103.104 21.3401 91.8549 29.9915C84.0678 35.7591 82.0488 44.1223 84.6446 53.3503C87.2405 62.2903 93.0086 67.7696 102.815 68.6348C105.411 68.9232 108.295 69.4995 110.891 69.7879C110.314 82.7653 89.8363 88.2447 78.0108 85.9376C57.5328 81.6118 49.7457 65.1742 56.0907 38.9314C42.8234 41.2385 30.4212 39.2197 18.8843 32.0102C5.32852 23.3588 -1.88203 10.9585 0.425353 0C1.57904 0.288381 2.73268 0.576657 3.88636 1.15342C21.7685 8.65131 40.5159 11.8235 60.1287 9.22804C73.6844 7.49776 86.9521 6.05591 100.508 4.61402C105.988 4.03726 111.756 3.46057 117.236 2.88381C120.409 2.59543 123.87 2.30701 127.331 2.30701C135.695 0.865106 144.06 0 153 0C170.883 0 188.188 3.17205 204.051 9.22804C211.838 12.1119 219.049 15.5725 226.26 19.6098C226.837 19.8982 227.414 20.1866 227.99 20.475C234.912 24.5123 241.546 29.4148 247.603 34.6057L337.302 124.292C339.033 126.023 340.763 128.041 342.782 129.772L363.837 150.823C365.568 152.553 367.01 154.284 368.74 155.725C383.45 169.856 401.332 180.815 420.946 188.024C436.232 193.215 452.669 196.099 469.975 196.099Z" fill="var(--fill-0, #0088FF)"/>
</g>
<defs>
<linearGradient id="paint0_linear_0_4" x1="54.0713" y1="204.606" x2="262.601" y2="204.606" gradientUnits="userSpaceOnUse">
<stop offset="0.2" stop-color="#FFE259"/>
<stop offset="0.8" stop-color="#FFA751"/>
</linearGradient>
<clipPath id="clip0_0_4">
<rect width="470" height="409" fill="white"/>
</clipPath>
</defs>
</svg>
