<svg preserveAspectRatio="none" width="100%" height="100%" overflow="visible" style="display: block;" viewBox="0 0 46 40" fill="none" xmlns="http://www.w3.org/2000/svg">
<g id="Logo Mark 1" clip-path="url(#clip0_0_4)">
<path id="Vector" d="M6.92937 28.1471C6.39302 28.4291 5.85667 28.6548 5.29208 28.8522C6.56239 29.3034 7.94558 29.5855 9.357 29.6701H10.9096C12.4057 29.5855 13.8171 29.2752 15.1438 28.7958C15.5673 28.6548 15.9625 28.4573 16.3577 28.2881C16.6682 28.1471 16.9787 27.9779 17.2892 27.8087C17.3174 27.8087 17.3174 27.7804 17.3457 27.7804C18.0232 27.3856 18.6724 26.9343 19.2652 26.4267L21.213 24.4807L24.0923 21.6039L25.7013 19.9963L24.0923 18.3887L21.2412 15.5401L19.2934 13.5941C18.7007 13.0864 18.0514 12.6351 17.3739 12.2403C17.3457 12.2403 17.3457 12.2121 17.3174 12.2121C17.0069 12.0429 16.6964 11.8737 16.3859 11.7327C15.9907 11.5352 15.5955 11.366 15.1721 11.225C13.8453 10.7173 12.4057 10.4353 10.9378 10.3507H9.38523C7.97381 10.4353 6.59062 10.7173 5.32031 11.1686C5.8849 11.366 6.42125 11.5916 6.9576 11.8737C8.59485 12.6916 10.0345 13.7915 11.2483 15.1453C11.2765 15.1735 11.2765 15.1735 11.3048 15.2017L16.1319 20.0245L11.3048 24.8473C11.2765 24.8755 11.2765 24.8755 11.2483 24.9037C10.0063 26.2011 8.56662 27.3292 6.92937 28.1471Z" fill="var(--fill-0, #D9D9D9)"/>
<path id="Vector_2" d="M6.92937 28.1471C6.39302 28.4291 5.85667 28.6548 5.29208 28.8522C6.56239 29.3034 7.94558 29.5855 9.357 29.6701H10.9096C12.4057 29.5855 13.8171 29.2752 15.1438 28.7958C15.5673 28.6548 15.9625 28.4573 16.3577 28.2881C16.6682 28.1471 16.9787 27.9779 17.2892 27.8087C17.3174 27.8087 17.3174 27.7804 17.3457 27.7804C18.0232 27.3856 18.6724 26.9343 19.2652 26.4267L21.213 24.4807L24.0923 21.6039L25.7013 19.9963L24.0923 18.3887L21.2412 15.5401L19.2934 13.5941C18.7007 13.0864 18.0514 12.6351 17.3739 12.2403C17.3457 12.2403 17.3457 12.2121 17.3174 12.2121C17.0069 12.0429 16.6964 11.8737 16.3859 11.7327C15.9907 11.5352 15.5955 11.366 15.1721 11.225C13.8453 10.7173 12.4057 10.4353 10.9378 10.3507H9.38523C7.97381 10.4353 6.59062 10.7173 5.32031 11.1686C5.8849 11.366 6.42125 11.5916 6.9576 11.8737C8.59485 12.6916 10.0345 13.7915 11.2483 15.1453C11.2765 15.1735 11.2765 15.1735 11.3048 15.2017L16.1319 20.0245L11.3048 24.8473C11.2765 24.8755 11.2765 24.8755 11.2483 24.9037C10.0063 26.2011 8.56662 27.3292 6.92937 28.1471Z" fill="url(#paint0_linear_0_4)"/>
<path id="Vector_3" d="M45.9975 20.786C45.9412 20.786 45.8848 20.786 45.8284 20.786H36.4C32.6173 20.786 29.2017 22.2244 26.6329 24.6217L25.3909 25.8626C25.2215 26.0318 25.0803 26.2011 24.911 26.3421L16.1319 35.1133C16.1037 35.1415 16.1037 35.1415 16.0754 35.1698C15.285 36.0441 14.3817 36.8338 13.3937 37.5107C13.3373 37.5389 13.2526 37.5671 13.1961 37.6235C11.8412 38.244 10.091 37.8773 8.99006 37.0312C8.22791 36.4671 8.03031 35.6492 8.28437 34.7467C8.53843 33.8724 9.10297 33.3365 10.0628 33.2519C10.3168 33.2237 10.5991 33.1673 10.8531 33.1391C10.7967 31.87 8.79249 31.3341 7.6351 31.5597C5.63087 31.9828 4.86873 33.5904 5.48973 36.1569C4.19123 35.9313 2.9774 36.1287 1.84826 36.8338C0.521516 37.6799 -0.184197 38.8926 0.0416316 39.9644C0.154546 39.9362 0.267455 39.908 0.380369 39.8515C2.13054 39.1182 3.96539 38.808 5.88494 39.0618C7.21166 39.2311 8.5102 39.3721 9.83693 39.5131C10.3733 39.5695 10.9378 39.6259 11.4742 39.6823C11.7847 39.7105 12.1235 39.7387 12.4622 39.7387C13.2808 39.8798 14.0994 39.9644 14.9745 39.9644C16.7247 39.9644 18.4184 39.6541 19.971 39.0618C20.7331 38.7798 21.4389 38.4413 22.1446 38.0465C22.201 38.0183 22.2575 37.9901 22.314 37.9619C22.9914 37.5671 23.6407 37.0876 24.2335 36.5799L33.0126 27.8087C33.1819 27.6394 33.3513 27.442 33.5489 27.2728L35.6096 25.2139C35.779 25.0447 35.9201 24.8755 36.0894 24.7344C37.5291 23.3525 39.2793 22.2808 41.199 21.5757C42.695 21.068 44.3038 20.786 45.9975 20.786Z" fill="var(--fill-0, #0088FF)"/>
<path id="Vector_4" d="M45.9975 19.1784C45.9412 19.1784 45.8848 19.1784 45.8284 19.1784H36.4C32.6173 19.1784 29.2017 17.74 26.6329 15.3427L25.3909 14.1018C25.2215 13.9325 25.0803 13.7633 24.911 13.6223L16.1319 4.85098C16.1037 4.82278 16.1037 4.82282 16.0754 4.79461C15.285 3.92029 14.3817 3.13058 13.3937 2.45369C13.3373 2.42549 13.2526 2.39729 13.1961 2.34089C11.8412 1.72041 10.091 2.08705 8.99006 2.93315C8.22791 3.49722 8.03031 4.31514 8.28437 5.21763C8.53843 6.09196 9.10297 6.62784 10.0628 6.71245C10.3168 6.74065 10.5991 6.79702 10.8531 6.82522C10.7967 8.09441 8.79249 8.63029 7.6351 8.40465C5.63087 7.98159 4.86873 6.374 5.48973 3.80747C4.19123 4.0331 2.9774 3.83567 1.84825 3.13058C0.521514 2.28448 -0.184198 1.07173 0.0416303 0C0.154544 0.0282035 0.267453 0.0563967 0.380368 0.112804C2.13054 0.846094 3.96539 1.15633 5.88493 0.902498C7.21166 0.733278 8.5102 0.592265 9.83693 0.451249C10.3733 0.394842 10.9378 0.338442 11.4742 0.282035C11.7847 0.253831 12.1234 0.225624 12.4622 0.225624C13.2808 0.0846069 14.0994 0 14.9745 0C16.7247 0 18.4184 0.310225 19.971 0.902498C20.7331 1.18453 21.4389 1.52298 22.1446 1.91783C22.201 1.94604 22.2575 1.97424 22.314 2.00244C22.9914 2.39729 23.6407 2.87675 24.2335 3.38442L33.0126 12.1557C33.1819 12.3249 33.3513 12.5224 33.5489 12.6916L35.6096 14.7504C35.779 14.9196 35.9201 15.0889 36.0894 15.2299C37.5291 16.6119 39.2793 17.6836 41.199 18.3887C42.695 18.8963 44.3038 19.1784 45.9975 19.1784Z" fill="var(--fill-0, #0088FF)"/>
</g>
<defs>
<linearGradient id="paint0_linear_0_4" x1="5.29208" y1="20.0104" x2="25.7013" y2="20.0104" gradientUnits="userSpaceOnUse">
<stop offset="0.2" stop-color="#FFE259"/>
<stop offset="0.8" stop-color="#FFA751"/>
</linearGradient>
<clipPath id="clip0_0_4">
<rect width="46" height="40" fill="white"/>
</clipPath>
</defs>
</svg>
